<?xml version="1.0" standalone="no"?>
<!DOCTYPE svg PUBLIC "-//W3C//DTD SVG 20010904//EN"
 "http://www.w3.org/TR/2001/REC-SVG-20010904/DTD/svg10.dtd">
<svg version="1.0" xmlns="http://www.w3.org/2000/svg"
 width="64.000000pt" height="64.000000pt" viewBox="0 0 64.000000 64.000000"
 preserveAspectRatio="xMidYMid meet">

<g transform="translate(0.000000,64.000000) scale(0.100000,-0.100000)"
fill="#000000" stroke="none">
<path d="M0 320 l0 -320 320 0 320 0 0 320 0 320 -320 0 -320 0 0 -320z m399
214 c12 -15 21 -33 21 -40 0 -8 17 -14 48 -16 41 -3 47 -6 50 -27 3 -15 -3
-30 -14 -38 -15 -11 -19 -34 -25 -131 -7 -121 -16 -155 -45 -166 -20 -8 -208
-8 -228 0 -29 11 -38 45 -45 166 -6 97 -10 120 -25 131 -11 8 -17 23 -14 38 3
21 9 24 51 27 30 2 47 8 47 16 0 7 9 25 21 40 18 23 28 26 79 26 51 0 61 -3
79 -26z"/>
<path d="M285 490 c-4 -6 10 -10 35 -10 25 0 39 4 35 10 -3 6 -19 10 -35 10
-16 0 -32 -4 -35 -10z"/>
<path d="M220 343 c0 -38 3 -92 6 -120 l7 -53 87 0 87 0 7 53 c3 28 6 82 6
120 l0 67 -100 0 -100 0 0 -67z m54 39 c2 -4 6 -46 7 -92 2 -70 -1 -86 -13
-88 -13 -3 -17 12 -20 85 -2 48 -3 91 -1 96 5 9 21 9 27 -1z m61 -88 c0 -72
-3 -89 -15 -89 -12 0 -16 17 -18 79 -3 87 1 110 21 103 8 -2 12 -30 12 -93z
m59 73 c0 -9 -1 -51 -2 -93 -2 -64 -4 -75 -19 -72 -14 3 -16 16 -14 88 1 46 5
88 8 93 8 13 28 2 27 -16z"/>
</g>
</svg>
